<svg aria-hidden="true" style="position: absolute; width: 0; height: 0; overflow: hidden;" version="1.1" xmlns="http://www.w3.org/2000/svg" xmlns:xlink="http://www.w3.org/1999/xlink">
<defs>
    <symbol id="icon-clearclose" viewBox="0 0 24 24">
        <path d="M18.984 6.422l-5.578 5.578 5.578 5.578-1.406 1.406-5.578-5.578-5.578 5.578-1.406-1.406 5.578-5.578-5.578-5.578 1.406-1.406 5.578 5.578 5.578-5.578z"></path>
    </symbol>
    <symbol id="icon-menu_open" viewBox="0 0 24 24">
        <path d="M21 15.609l-1.406 1.406-5.016-5.016 5.016-5.016 1.406 1.406-3.563 3.609zM3 6h12.984v2.016h-12.984v-2.016zM3 12.984v-1.969h9.984v1.969h-9.984zM3 18v-2.016h12.984v2.016h-12.984z"></path>
    </symbol>
    <symbol id="icon-more_vert" viewBox="0 0 24 24">
        <path d="M12 15.984q0.797 0 1.406 0.609t0.609 1.406-0.609 1.406-1.406 0.609-1.406-0.609-0.609-1.406 0.609-1.406 1.406-0.609zM12 9.984q0.797 0 1.406 0.609t0.609 1.406-0.609 1.406-1.406 0.609-1.406-0.609-0.609-1.406 0.609-1.406 1.406-0.609zM12 8.016q-0.797 0-1.406-0.609t-0.609-1.406 0.609-1.406 1.406-0.609 1.406 0.609 0.609 1.406-0.609 1.406-1.406 0.609z"></path>
    </symbol>
    <symbol id="icon-delete_outline" viewBox="0 0 24 24">
        <path d="M15.516 3.984h3.469v2.016h-13.969v-2.016h3.469l1.031-0.984h4.969zM8.016 9v9.984h7.969v-9.984h-7.969zM6 18.984v-12h12v12q0 0.797-0.609 1.406t-1.406 0.609h-7.969q-0.797 0-1.406-0.609t-0.609-1.406z"></path>
    </symbol>
    <symbol id="icon-add" viewBox="0 0 24 24">
        <path d="M18.984 12.984h-6v6h-1.969v-6h-6v-1.969h6v-6h1.969v6h6v1.969z"></path>
    </symbol>
    <symbol id="icon-check" viewBox="0 0 24 24">
        <path d="M9 16.172l10.594-10.594 1.406 1.406-12 12-5.578-5.578 1.406-1.406z"></path>
    </symbol>
    <symbol id="icon-emoji_emotions" viewBox="0 0 24 24">
        <path d="M15.516 11.016q0.609 0 1.055-0.445t0.445-1.055-0.445-1.055-1.055-0.445-1.055 0.445-0.445 1.055 0.445 1.055 1.055 0.445zM12 18q1.688 0 3.047-1.102t1.969-2.883h-10.031q0.609 1.781 1.969 2.883t3.047 1.102zM8.484 8.016q-0.609 0-1.055 0.445t-0.445 1.055 0.445 1.055 1.055 0.445 1.055-0.445 0.445-1.055-0.445-1.055-1.055-0.445zM12 2.016q4.125 0 7.055 2.93t2.93 7.055-2.93 7.055-7.055 2.93-7.055-2.93-2.93-7.055 2.93-7.055 7.055-2.93z"></path>
    </symbol>
    <symbol id="icon-collectionsphoto_library" viewBox="0 0 24 24">
        <path d="M2.016 6h1.969v14.016h14.016v1.969h-14.016q-0.797 0-1.383-0.586t-0.586-1.383v-14.016zM11.016 12l-3 3.984h12l-4.031-4.969-2.953 3.703zM21.984 15.984q0 0.797-0.586 1.406t-1.383 0.609h-12q-0.797 0-1.406-0.609t-0.609-1.406v-12q0-0.797 0.609-1.383t1.406-0.586h12q0.797 0 1.383 0.586t0.586 1.383v12z"></path>
    </symbol>
    <symbol id="icon-search" viewBox="0 0 24 24">
        <path d="M9.516 14.016q1.875 0 3.188-1.313t1.313-3.188-1.313-3.188-3.188-1.313-3.188 1.313-1.313 3.188 1.313 3.188 3.188 1.313zM15.516 14.016l4.969 4.969-1.5 1.5-4.969-4.969v-0.797l-0.281-0.281q-1.781 1.547-4.219 1.547-2.719 0-4.617-1.875t-1.898-4.594 1.898-4.617 4.617-1.898 4.594 1.898 1.875 4.617q0 0.984-0.469 2.227t-1.078 1.992l0.281 0.281h0.797z"></path>
    </symbol>
    <symbol id="icon-spinner3" viewBox="0 0 32 32">
        <path d="M16 9.472c-1.030 0-1.865-0.835-1.865-1.865v-5.596c0-1.030 0.835-1.865 1.865-1.865s1.865 0.835 1.865 1.865v5.596c0 1.030-0.835 1.865-1.865 1.865z"></path>
        <path d="M16 31.155c-0.644 0-1.166-0.522-1.166-1.166v-5.596c0-0.644 0.522-1.166 1.166-1.166s1.166 0.522 1.166 1.166v5.596c0 0.644-0.522 1.166-1.166 1.166z"></path>
        <path d="M11.805 10.48c-0.604 0-1.192-0.314-1.516-0.875l-2.798-4.846c-0.483-0.836-0.196-1.906 0.64-2.389s1.906-0.196 2.389 0.64l2.798 4.846c0.483 0.836 0.196 1.906-0.64 2.389-0.275 0.159-0.576 0.235-0.873 0.235z"></path>
        <path d="M22.995 29.164c-0.363 0-0.715-0.188-0.91-0.525l-2.798-4.846c-0.29-0.502-0.118-1.143 0.384-1.433s1.143-0.118 1.433 0.384l2.798 4.846c0.29 0.502 0.118 1.143-0.384 1.433-0.165 0.095-0.346 0.141-0.524 0.141z"></path>
        <path d="M8.729 13.436c-0.277 0-0.557-0.070-0.814-0.219l-4.846-2.798c-0.781-0.451-1.048-1.449-0.597-2.229s1.449-1.048 2.229-0.597l4.846 2.798c0.781 0.451 1.048 1.449 0.597 2.229-0.302 0.524-0.851 0.816-1.415 0.816z"></path>
        <path d="M28.114 23.927c-0.158 0-0.319-0.040-0.465-0.125l-4.846-2.798c-0.446-0.258-0.599-0.828-0.341-1.274s0.828-0.599 1.274-0.341l4.846 2.798c0.446 0.258 0.599 0.828 0.341 1.274-0.173 0.299-0.486 0.466-0.809 0.466z"></path>
        <path d="M7.607 17.515h-5.596c-0.837 0-1.516-0.678-1.516-1.515s0.678-1.515 1.516-1.515h5.596c0.837 0 1.516 0.678 1.516 1.515s-0.678 1.515-1.516 1.515z"></path>
        <path d="M29.989 16.933c-0 0 0 0 0 0h-5.596c-0.515-0-0.933-0.418-0.933-0.933s0.418-0.933 0.933-0.933c0 0 0 0 0 0h5.596c0.515 0 0.933 0.418 0.933 0.933s-0.418 0.933-0.933 0.933z"></path>
        <path d="M3.886 24.394c-0.483 0-0.954-0.251-1.213-0.7-0.386-0.669-0.157-1.525 0.512-1.911l4.846-2.798c0.669-0.387 1.525-0.157 1.911 0.512s0.157 1.525-0.512 1.911l-4.846 2.798c-0.22 0.127-0.461 0.188-0.698 0.188z"></path>
        <path d="M23.27 12.736c-0.322 0-0.636-0.167-0.809-0.466-0.258-0.446-0.105-1.016 0.341-1.274l4.846-2.798c0.446-0.257 1.016-0.105 1.274 0.341s0.105 1.016-0.341 1.274l-4.846 2.798c-0.147 0.085-0.307 0.125-0.465 0.125z"></path>
        <path d="M9.004 29.397c-0.218 0-0.438-0.055-0.64-0.172-0.613-0.354-0.823-1.138-0.469-1.752l2.798-4.846c0.354-0.613 1.138-0.823 1.752-0.469s0.823 1.138 0.469 1.752l-2.798 4.846c-0.237 0.411-0.668 0.641-1.112 0.641z"></path>
        <path d="M20.196 9.664c-0.158 0-0.319-0.040-0.465-0.125-0.446-0.258-0.599-0.828-0.341-1.274l2.798-4.846c0.258-0.446 0.828-0.599 1.274-0.341s0.599 0.828 0.341 1.274l-2.798 4.846c-0.173 0.299-0.486 0.466-0.809 0.466z"></path>
    </symbol>

    <symbol id="icon-message" viewBox="0 0 24 24">
        <path d="M18 8.016v-2.016h-12v2.016h12zM18 11.016v-2.016h-12v2.016h12zM18 14.016v-2.016h-12v2.016h12zM20.016 2.016q0.797 0 1.383 0.586t0.586 1.383v12q0 0.797-0.586 1.406t-1.383 0.609h-14.016l-3.984 3.984v-18q0-0.797 0.586-1.383t1.383-0.586h16.031z"></path>
    </symbol>
    <symbol id="icon-grouppeople" viewBox="0 0 24 24">
        <path d="M15.984 12.984q1.313 0 2.859 0.375t2.859 1.219 1.313 1.922v2.484h-6v-2.484q0-2.063-1.969-3.469 0.328-0.047 0.938-0.047zM8.016 12.984q1.313 0 2.859 0.375t2.836 1.219 1.289 1.922v2.484h-14.016v-2.484q0-1.078 1.313-1.922t2.859-1.219 2.859-0.375zM8.016 11.016q-1.219 0-2.109-0.891t-0.891-2.109 0.891-2.109 2.109-0.891 2.086 0.891 0.867 2.109-0.867 2.109-2.086 0.891zM15.984 11.016q-1.219 0-2.109-0.891t-0.891-2.109 0.891-2.109 2.109-0.891 2.109 0.891 0.891 2.109-0.891 2.109-2.109 0.891z"></path>
    </symbol>

    <symbol id="icon-profile" viewBox="0 0 24 24">
        <path d="M12 12.984q1.5 0 3.281 0.422t3.258 1.406 1.477 2.203v3h-16.031v-3q0-1.219 1.477-2.203t3.258-1.406 3.281-0.422zM12 3.984q1.641 0 2.813 1.195t1.172 2.836-1.172 2.813-2.813 1.172-2.813-1.172-1.172-2.813 1.172-2.836 2.813-1.195zM12 14.906q-2.063 0-4.078 0.773t-2.016 1.336v1.078h12.188v-1.078q0-0.563-2.016-1.336t-4.078-0.773zM12 5.906q-0.891 0-1.5 0.609t-0.609 1.5 0.609 1.477 1.5 0.586 1.5-0.586 0.609-1.477-0.609-1.5-1.5-0.609z"></path>
    </symbol>
    <symbol id="icon-settings" viewBox="0 0 24 24">
        <path d="M12 15.516q1.453 0 2.484-1.031t1.031-2.484-1.031-2.484-2.484-1.031-2.484 1.031-1.031 2.484 1.031 2.484 2.484 1.031zM19.453 12.984l2.109 1.641q0.328 0.234 0.094 0.656l-2.016 3.469q-0.188 0.328-0.609 0.188l-2.484-0.984q-0.984 0.703-1.688 0.984l-0.375 2.625q-0.094 0.422-0.469 0.422h-4.031q-0.375 0-0.469-0.422l-0.375-2.625q-0.891-0.375-1.688-0.984l-2.484 0.984q-0.422 0.141-0.609-0.188l-2.016-3.469q-0.234-0.422 0.094-0.656l2.109-1.641q-0.047-0.328-0.047-0.984t0.047-0.984l-2.109-1.641q-0.328-0.234-0.094-0.656l2.016-3.469q0.188-0.328 0.609-0.188l2.484 0.984q0.984-0.703 1.688-0.984l0.375-2.625q0.094-0.422 0.469-0.422h4.031q0.375 0 0.469 0.422l0.375 2.625q0.891 0.375 1.688 0.984l2.484-0.984q0.422-0.141 0.609 0.188l2.016 3.469q0.234 0.422-0.094 0.656l-2.109 1.641q0.047 0.328 0.047 0.984t-0.047 0.984z"></path>
    </symbol>
    <symbol id="icon-users" viewBox="0 0 24 24">
        <path d="M18 21v-2c0-1.38-0.561-2.632-1.464-3.536s-2.156-1.464-3.536-1.464h-8c-1.38 0-2.632 0.561-3.536 1.464s-1.464 2.156-1.464 3.536v2c0 0.552 0.448 1 1 1s1-0.448 1-1v-2c0-0.829 0.335-1.577 0.879-2.121s1.292-0.879 2.121-0.879h8c0.829 0 1.577 0.335 2.121 0.879s0.879 1.292 0.879 2.121v2c0 0.552 0.448 1 1 1s1-0.448 1-1zM14 7c0-1.38-0.561-2.632-1.464-3.536s-2.156-1.464-3.536-1.464-2.632 0.561-3.536 1.464-1.464 2.156-1.464 3.536 0.561 2.632 1.464 3.536 2.156 1.464 3.536 1.464 2.632-0.561 3.536-1.464 1.464-2.156 1.464-3.536zM12 7c0 0.829-0.335 1.577-0.879 2.121s-1.292 0.879-2.121 0.879-1.577-0.335-2.121-0.879-0.879-1.292-0.879-2.121 0.335-1.577 0.879-2.121 1.292-0.879 2.121-0.879 1.577 0.335 2.121 0.879 0.879 1.292 0.879 2.121zM24 21v-2c-0.001-1.245-0.457-2.385-1.216-3.261-0.652-0.753-1.528-1.311-2.529-1.576-0.534-0.141-1.081 0.177-1.222 0.711s0.177 1.081 0.711 1.222c0.607 0.161 1.136 0.498 1.528 0.952 0.455 0.526 0.727 1.206 0.728 1.952v2c0 0.552 0.448 1 1 1s1-0.448 1-1zM15.752 4.099c0.803 0.206 1.445 0.715 1.837 1.377s0.531 1.47 0.325 2.273c-0.176 0.687-0.575 1.256-1.105 1.652-0.314 0.235-0.675 0.41-1.063 0.511-0.534 0.14-0.854 0.687-0.713 1.221s0.687 0.854 1.221 0.713c0.637-0.167 1.232-0.455 1.753-0.844 0.883-0.66 1.552-1.613 1.845-2.758 0.342-1.337 0.11-2.689-0.542-3.788s-1.725-1.953-3.062-2.296c-0.535-0.137-1.080 0.186-1.217 0.721s0.186 1.080 0.721 1.217z"></path>
    </symbol>
    <symbol id="icon-off" viewBox="0 0 24 24">
        <path d="M15 24v-2.016h2.016v2.016h-2.016zM16.547 4.453q3.469 2.438 3.469 6.563 0 3.281-2.344 5.625t-5.672 2.344-5.672-2.344-2.344-5.625q0-1.734 1.008-3.656t2.461-2.906l1.406 1.406q-2.859 1.781-2.859 5.156 0 2.484 1.758 4.242t4.242 1.758 4.242-1.758 1.758-4.242q0-1.406-0.844-2.906t-2.063-2.203zM12.984 2.016v9.984h-1.969v-9.984h1.969zM11.016 24v-2.016h1.969v2.016h-1.969zM6.984 24v-2.016h2.016v2.016h-2.016z"></path>
    </symbol>
    <symbol id="icon-user-x" viewBox="0 0 24 24">
        <path d="M17 21v-2c0-1.38-0.561-2.632-1.464-3.536s-2.156-1.464-3.536-1.464h-7c-1.38 0-2.632 0.561-3.536 1.464s-1.464 2.156-1.464 3.536v2c0 0.552 0.448 1 1 1s1-0.448 1-1v-2c0-0.829 0.335-1.577 0.879-2.121s1.292-0.879 2.121-0.879h7c0.829 0 1.577 0.335 2.121 0.879s0.879 1.292 0.879 2.121v2c0 0.552 0.448 1 1 1s1-0.448 1-1zM13.5 7c0-1.38-0.561-2.632-1.464-3.536s-2.156-1.464-3.536-1.464-2.632 0.561-3.536 1.464-1.464 2.156-1.464 3.536 0.561 2.632 1.464 3.536 2.156 1.464 3.536 1.464 2.632-0.561 3.536-1.464 1.464-2.156 1.464-3.536zM11.5 7c0 0.829-0.335 1.577-0.879 2.121s-1.292 0.879-2.121 0.879-1.577-0.335-2.121-0.879-0.879-1.292-0.879-2.121 0.335-1.577 0.879-2.121 1.292-0.879 2.121-0.879 1.577 0.335 2.121 0.879 0.879 1.292 0.879 2.121zM22.293 7.293l-1.793 1.793-1.793-1.793c-0.391-0.391-1.024-0.391-1.414 0s-0.391 1.024 0 1.414l1.793 1.793-1.793 1.793c-0.391 0.391-0.391 1.024 0 1.414s1.024 0.391 1.414 0l1.793-1.793 1.793 1.793c0.391 0.391 1.024 0.391 1.414 0s0.391-1.024 0-1.414l-1.793-1.793 1.793-1.793c0.391-0.391 0.391-1.024 0-1.414s-1.024-0.391-1.414 0z"></path>
    </symbol>
    <symbol id="icon-menu" viewBox="0 0 24 24">
        <path d="M3 6h18v2.016h-18v-2.016zM3 12.984v-1.969h18v1.969h-18zM3 18v-2.016h18v2.016h-18z"></path>
    </symbol>
    <symbol id="icon-user-minus" viewBox="0 0 32 32">
      <path d="M12 23c0-4.726 2.996-8.765 7.189-10.319 0.509-1.142 0.811-2.411 0.811-3.681 0-4.971 0-9-6-9s-6 4.029-6 9c0 3.096 1.797 6.191 4 7.432v1.649c-6.784 0.555-12 3.888-12 7.918h12.416c-0.271-0.954-0.416-1.96-0.416-3z"></path>
      <path d="M23 14c-4.971 0-9 4.029-9 9s4.029 9 9 9c4.971 0 9-4.029 9-9s-4.029-9-9-9zM28 24h-10v-2h10v2z"></path>
    </symbol>
    <symbol id="icon-notifications" viewBox="0 0 24 24">
        <path d="M15.984 17.016v-6q0-1.922-1.078-3.211t-2.906-1.289-2.906 1.289-1.078 3.211v6h7.969zM18 15.984l2.016 2.016v0.984h-16.031v-0.984l2.016-2.016v-4.969q0-2.344 1.195-4.078t3.305-2.25v-0.703q0-0.609 0.422-1.055t1.078-0.445 1.078 0.445 0.422 1.055v0.703q2.109 0.516 3.305 2.25t1.195 4.078v4.969zM12 21.984q-0.797 0-1.406-0.586t-0.609-1.383h4.031q0 0.797-0.609 1.383t-1.406 0.586z"></path>
    </symbol>

    <symbol id="icon-prev" viewBox="0 0 24 24">
        <path d="M15.422 7.406l-4.594 4.594 4.594 4.594-1.406 1.406-6-6 6-6z"></path>
    </symbol>
    <symbol id="icon-next" viewBox="0 0 24 24">
        <path d="M9.984 6l6 6-6 6-1.406-1.406 4.594-4.594-4.594-4.594z"></path>
    </symbol>
    <symbol id="icon-group_add" viewBox="0 0 24 24">
      <path d="M12.984 12.984q1.875 0 3.938 0.82t2.063 2.18v2.016h-12v-2.016q0-1.359 2.063-2.18t3.938-0.82zM19.641 13.172q1.734 0.281 3.047 1.008t1.313 1.805v2.016h-3v-2.016q0-1.594-1.359-2.813zM12.984 11.016q-1.219 0-2.109-0.891t-0.891-2.109 0.891-2.109 2.109-0.891 2.109 0.891 0.891 2.109-0.891 2.109-2.109 0.891zM18 11.016q-0.469 0-0.891-0.141 0.891-1.266 0.891-2.859t-0.891-2.859q0.422-0.141 0.891-0.141 1.219 0 2.109 0.891t0.891 2.109-0.891 2.109-2.109 0.891zM8.016 9.984v2.016h-3v3h-2.016v-3h-3v-2.016h3v-3h2.016v3h3z"></path>
    </symbol>
    <symbol id="icon-exit" viewBox="0 0 32 32">
      <path d="M24 20v-4h-10v-4h10v-4l6 6zM22 18v8h-10v6l-12-6v-26h22v10h-2v-8h-16l8 4v18h8v-6z"></path>
    </symbol>
    <symbol id="icon-user-plus" viewBox="0 0 32 32">
      <path d="M12 23c0-4.726 2.996-8.765 7.189-10.319 0.509-1.142 0.811-2.411 0.811-3.681 0-4.971 0-9-6-9s-6 4.029-6 9c0 3.096 1.797 6.191 4 7.432v1.649c-6.784 0.555-12 3.888-12 7.918h12.416c-0.271-0.954-0.416-1.96-0.416-3z"></path>
      <path d="M23 14c-4.971 0-9 4.029-9 9s4.029 9 9 9c4.971 0 9-4.029 9-9s-4.029-9-9-9zM28 24h-4v4h-2v-4h-4v-2h4v-4h2v4h4v2z"></path>
    </symbol>
    <symbol id="icon-edit" viewBox="0 0 24 24">
      <path d="M20.719 7.031l-1.828 1.828-3.75-3.75 1.828-1.828q0.281-0.281 0.703-0.281t0.703 0.281l2.344 2.344q0.281 0.281 0.281 0.703t-0.281 0.703zM3 17.25l11.063-11.063 3.75 3.75-11.063 11.063h-3.75v-3.75z"></path>
    </symbol>

    <symbol id="icon-reply" viewBox="0 0 24 24">
      <title>reply</title>
      <path d="M9.984 9q4.875 0.703 7.523 3.727t3.492 7.289q-3.609-5.109-11.016-5.109v4.078l-6.984-6.984 6.984-6.984v3.984z"></path>
    </symbol>

    <symbol id="icon-document-file-gif" viewBox="0 0 32 32">
      <path d="M21 26v2.003c0 1.107-0.894 1.997-1.997 1.997h-15.005c-1.107 0-1.997-0.899-1.997-2.007v-22.985c0-1.109 0.899-2.007 2.009-2.007h9.991v6.002c0 1.111 0.898 1.998 2.006 1.998h4.994v2h-8.993c-1.661 0-3.007 1.342-3.007 2.999v7.002c0 1.656 1.336 2.999 3.007 2.999h8.993zM15 3v5.997c0 0.554 0.451 1.003 0.991 1.003h5.009l-6-7zM11.995 14h17.011c1.092 0 1.995 0.892 1.995 1.992v7.016c0 1.092-0.893 1.992-1.995 1.992h-17.011c-1.092 0-1.995-0.892-1.995-1.992v-7.016c0-1.092 0.893-1.992 1.995-1.992zM17 20v2h-2c-0.556 0-1-0.448-1-1v-3c0-0.556 0.448-1 1-1h3v-1h-2.995c-1.107 0-2.005 0.887-2.005 2.006v2.988c0 1.108 0.894 2.006 2.005 2.006h2.995v-4h-3v1h2zM20 17v5h-1v1h3v-1h-1v-5h1v-1h-3v1h1zM24 19v-2h4v-1h-5v7h1v-3h3v-1h-3z"></path>
    </symbol>

    <symbol id="icon-sticker" viewBox="0 0 512 512">
      <g>
        <path style="fill:#FD5C6F;" d="M497,248.5C497,385.74,385.74,497,248.5,497S0,385.74,0,248.5S111.26,0,248.5,0   c15.43,0,30.53,1.41,45.18,4.1c-12.92,22.24-20.32,48.1-20.32,75.68c0,83.32,67.54,150.86,150.86,150.86   c25.39,0,49.31-6.27,70.3-17.34C496.16,224.8,497,236.55,497,248.5z"/>
        <path style="fill:#E92740;" d="M261.706,0.359C249.68,24.971,243.36,52.173,243.36,79.78c0,99.727,81.134,180.86,180.86,180.86   c25.045,0,49.944-5.26,72.752-15.261c-0.133-10.875-0.956-21.582-2.453-32.079c-20.99,11.07-44.91,17.34-70.3,17.34   c-83.32,0-150.86-67.54-150.86-150.86c0-27.58,7.4-53.44,20.32-75.68C283.237,2.183,272.563,0.929,261.706,0.359z"/>
        <circle style="fill:#EAEAEC;" cx="248.5" cy="248.5" r="186.497"/>
        <path style="fill:#D8D8DA;" d="M248.5,62.003c-1.427,0-2.85,0.022-4.269,0.054c-0.577,5.875-0.871,11.79-0.871,17.723   c0,99.727,81.134,180.86,180.86,180.86c3.469,0,6.935-0.108,10.393-0.308c0.245-3.914,0.384-7.856,0.384-11.832   C434.997,145.5,351.5,62.003,248.5,62.003z"/>
        <path style="fill:#EAEAEC;" d="M494.52,213.3c-20.99,11.07-44.91,17.34-70.3,17.34c-83.32,0-150.86-67.54-150.86-150.86   c0-27.58,7.4-53.44,20.32-75.68L494.52,213.3z"/>
      <g>
        <g>
          <path style="fill:#3A3C4C;" d="M165.566,282.166c-4.142,0-7.5-3.358-7.5-7.5v-15.01c0-4.142,3.358-7.5,7.5-7.5s7.5,3.358,7.5,7.5     v15.01C173.066,278.808,169.708,282.166,165.566,282.166z"/>
        </g>
        <g>
          <path style="fill:#3A3C4C;" d="M331.434,282.166c-4.142,0-7.5-3.358-7.5-7.5v-15.01c0-4.142,3.358-7.5,7.5-7.5s7.5,3.358,7.5,7.5     v15.01C338.934,278.808,335.576,282.166,331.434,282.166z"/>
        </g>
        <g>
          <path style="fill:#3A3C4C;" d="M248.5,290.178c-10.142,0-19.661-4.235-26.116-11.62c-2.727-3.119-2.408-7.857,0.71-10.583     c3.119-2.726,7.857-2.408,10.583,0.711c3.607,4.126,9.01,6.492,14.823,6.492s11.216-2.366,14.822-6.492     c2.727-3.119,7.464-3.437,10.583-0.711c3.119,2.726,3.437,7.464,0.711,10.583C268.161,285.942,258.642,290.178,248.5,290.178z"/>
        </g>
      </g>
    </g>
    </symbol>

    <symbol id="icon-gif" viewBox="0 0 512 512">
       <path d="m512 120v392h-361v-512h241l28.800781 96.898438zm0 0" fill="#dae9fa"/><path d="m512 120v392h-181v-512h61l28.800781 96.898438zm0 0" fill="#afc5f4"/><path d="m0 181v270h361v-270zm0 0" fill="#61d7a8"/><path d="m331 181h30v270h-30zm0 0" fill="#00ab94"/><path d="m392 120h120l-120-120zm0 0" fill="#95a8ce"/><path d="m151 316v75h-90v-75h30v45h30v-30h-15v-15zm0 0"/><path d="m181 316h30v75h-30zm0 0"/><path d="m301 316v15h-30v60h-30v-75zm0 0"/><g fill="#293939"><path d="m91 361h30v-30h-15v-30h45v90h-90v-150h90v30h-60zm0 0"/><path d="m271 271v30h30v30h-30v60h-30v-150h60v30zm0 0"/><path d="m181 241h30v150h-30zm0 0"/></g>
    </symbol>

    <symbol id="icon-emoji" viewBox="0 0 512 512" >
      <circle style="fill:#FFCA28;" cx="256" cy="256" r="256"/>
      <g>
        <path style="fill:#6D4C41;" d="M399.68,208.32c-8.832,0-16-7.168-16-16c0-17.632-14.336-32-32-32s-32,14.368-32,32   c0,8.832-7.168,16-16,16s-16-7.168-16-16c0-35.296,28.704-64,64-64s64,28.704,64,64C415.68,201.184,408.512,208.32,399.68,208.32z"/>
        <path style="fill:#6D4C41;" d="M207.68,208.32c-8.832,0-16-7.168-16-16c0-17.632-14.368-32-32-32s-32,14.368-32,32   c0,8.832-7.168,16-16,16s-16-7.168-16-16c0-35.296,28.704-64,64-64s64,28.704,64,64C223.68,201.184,216.512,208.32,207.68,208.32z"/>
      </g>
      <path style="fill:#FAFAFA;" d="M437.696,294.688c-3.04-4-7.744-6.368-12.736-6.368H86.4c-5.024,0-9.728,2.336-12.736,6.336  c-3.072,4.032-4.032,9.184-2.688,14.016C94.112,390.88,170.08,448.32,255.648,448.32s161.536-57.44,184.672-139.648  C441.696,303.84,440.736,298.688,437.696,294.688z"/>
      <g>
      </g>
      <g>
      </g>
      <g>
      </g>
      <g>
      </g>
      <g>
      </g>
      <g>
      </g>
      <g>
      </g>
      <g>
      </g>
      <g>
      </g>
      <g>
      </g>
      <g>
      </g>
      <g>
      </g>
      <g>
      </g>
      <g>
      </g>
      <g>
      </g>
    </symbol>

    <symbol id="icon-uploadphoto" viewBox="0 0 512 512"><g id="Image-2" data-name="Image"><path d="m496 122v272h-32l-416-2v-270z" fill="#787680"/><path d="m16 154h448v272h-448z" fill="#78b9eb"/><path d="m464 370-80-96-104 104v46h184z" fill="#4e901e"/><circle cx="304" cy="234" fill="#ffda44" r="40"/><path d="m328 426-200-200-112 112v88z" fill="#91cc04"/><path d="m496 112h-448a8 8 0 0 0 -8 8v24h-24a8 8 0 0 0 -8 8v272a8 8 0 0 0 8 8h448a8 8 0 0 0 8-8v-24h24a8 8 0 0 0 8-8v-272a8 8 0 0 0 -8-8zm-40 48v185.9l-65.854-79.025a8 8 0 0 0 -11.8-.536l-98.346 98.347-146.343-146.343a8 8 0 0 0 -11.314 0l-98.343 98.343v-156.686zm-432 179.314 104-104 180.686 180.686h-284.686zm307.314 76.686-40-40 92.149-92.148 72.537 87.048v45.1zm156.686-32h-16v-232a8 8 0 0 0 -8-8h-408v-16h432z"/><path d="m304 280a48 48 0 1 0 -48-48 48.053 48.053 0 0 0 48 48zm0-80a32 32 0 1 1 -32 32 32.036 32.036 0 0 1 32-32z"/><path d="m96 384h-48a8 8 0 0 0 0 16h48a8 8 0 0 0 0-16z"/><path d="m128 384h-8a8 8 0 0 0 0 16h8a8 8 0 0 0 0-16z"/></g></symbol>
</defs>
</svg>
