<svg width="122" height="101" xmlns="http://www.w3.org/2000/svg">

 <g>
  <title>background</title>
  <rect fill="none" id="canvas_background" height="103" width="124" y="-1" x="-1"/>
 </g>
 <g>
  <title>Layer 1</title>
  <path id="svg_1" fill="#3B97D3" d="m78.725147,67.730999l0,4c0,3.3 -2.7,6 -6,6l-35.6,0l-1.4,0l-1,0.8l-13,10l0,-6.8l0,-4l-4,0l-4,0c-3.3,0 -6,-2.7 -6,-6l0,-42c0,-3.3 2.7,-6 6,-6l23,0l0,-4l-23,0c-5.5,0 -10,4.5 -10,10l0,42c0,5.5 4.5,10 10,10l4,0l0,15l19.4,-15l35.6,0c5.5,0 10,-4.5 10,-10l0,-4l-4,0z"/>
  <path id="svg_2" fill="#2C3E50" d="m108.192983,7.263164c3.3,0 6,2.7 6,6l0,42c0,3.3 -2.7,6 -6,6l-4,0l-4,0l0,4l0,6.9l-13,-10l-1,-0.9l-1.4,0l-35.6,0c-3.3,0 -6,-2.7 -6,-6l0,-42c0,-3.3 2.7,-6 6,-6l59,0m0,-4l-59,0c-5.5,0 -10,4.5 -10,10l0,42c0,5.5 4.5,10 10,10l35.6,0l19.4,15l0,-15l4,0c5.5,0 10,-4.5 10,-10l0,-42c0,-5.5 -4.5,-10 -10,-10l0,0z"/>
  <rect stroke="null" id="svg_3" height="124.912232" width="7.485373" y="3.049731" x="-22.198795" fill-opacity="null" stroke-opacity="null" stroke-width="null" fill="#3B97D3"/>
 </g>
</svg>